<?xml version="1.0" encoding="utf-8"?>
<!-- Generator: Adobe Illustrator 18.0.0, SVG Export Plug-In . SVG Version: 6.00 Build 0)  -->
<!DOCTYPE svg PUBLIC "-//W3C//DTD SVG 1.1//EN" "http://www.w3.org/Graphics/SVG/1.1/DTD/svg11.dtd">
<svg version="1.1" id="Layer_1" xmlns="http://www.w3.org/2000/svg" xmlns:xlink="http://www.w3.org/1999/xlink" x="0px" y="0px"
	 viewBox="0 0 21.2 15" enable-background="new 0 0 21.2 15" xml:space="preserve">
<g>
	<g>
		<path fill="#999999" d="M21.2,15H0V0h21.2V15z M1.5,13.5h18.2v-12H1.5V13.5z"/>
	</g>
	<g>
		<path fill="#999999" d="M8,8.3l-7.7,5.3l0.9,1.3l8.1-5.6c0,0,0,0,0,0L8,8.3z"/>
	</g>
	<g>
		<path fill="#999999" d="M11.9,9.3C11.9,9.3,11.9,9.3,11.9,9.3l7.8,5.6l0.9-1.2l-7.4-5.3L11.9,9.3z"/>
	</g>
	<g>
		<polygon fill="#999999" points="20.9,2.5 20,1.3 11.8,7.4 13.1,8.4 		"/>
		<polygon fill="#999999" points="1.2,1.3 0.3,2.5 8,8.3 9.3,7.4 		"/>
		<path fill="#999999" d="M9.3,9.3c0.4,0.3,0.8,0.4,1.3,0.4c0.5,0,0.9-0.1,1.3-0.4l-1.3-0.9L9.3,9.3z"/>
		<path fill="#999999" d="M13.1,8.4l-1.3-0.9L11,8.1c-0.2,0.2-0.6,0.2-0.8,0L9.3,7.4L8,8.3l1.2,0.9c0,0,0,0,0,0l1.3-0.9l1.3,0.9
			c0,0,0,0,0.1,0L13.1,8.4z"/>
	</g>
</g>
</svg>
