<?xml version="1.0" encoding="utf-8"?>
<!-- Generator: Adobe Illustrator 18.0.0, SVG Export Plug-In . SVG Version: 6.00 Build 0)  -->
<!DOCTYPE svg PUBLIC "-//W3C//DTD SVG 1.1//EN" "http://www.w3.org/Graphics/SVG/1.1/DTD/svg11.dtd">
<svg version="1.1" id="Layer_1" xmlns="http://www.w3.org/2000/svg" xmlns:xlink="http://www.w3.org/1999/xlink" x="0px" y="0px"
	 viewBox="0 0 19.7 12.5" enable-background="new 0 0 19.7 12.5" xml:space="preserve">
<path fill="#999999" d="M9,1.3c0.4,0.5,0.6,1.1,0.6,1.9c0,0.7-0.2,1.3-0.6,1.8C8.8,5.2,8.5,5.4,8.1,5.6c0.6,0.2,1.1,0.6,1.4,1.1
	C9.8,7.2,10,7.8,10,8.5c0,0.7-0.2,1.4-0.5,1.9c-0.2,0.4-0.5,0.7-0.9,1c-0.4,0.3-0.8,0.5-1.4,0.6c-0.5,0.1-1.1,0.2-1.7,0.2H0V0h5.9
	C7.4,0,8.4,0.5,9,1.3 M2.4,2.1v2.7h3c0.5,0,1-0.1,1.3-0.3C7,4.3,7.2,3.9,7.2,3.4c0-0.6-0.2-0.9-0.7-1.1C6.1,2.2,5.7,2.1,5.1,2.1H2.4
	z M2.4,6.8v3.2h3c0.5,0,0.9-0.1,1.2-0.2c0.5-0.3,0.8-0.8,0.8-1.5c0-0.6-0.3-1.1-0.8-1.3C6.4,6.9,5.9,6.8,5.4,6.8H2.4z M17.3,3.4
	c0.6,0.3,1.1,0.7,1.6,1.3c0.4,0.5,0.6,1.2,0.7,1.9c0.1,0.4,0.1,1,0.1,1.8h-6.6c0,0.9,0.3,1.5,0.9,1.9c0.4,0.2,0.8,0.3,1.3,0.3
	c0.5,0,1-0.1,1.3-0.4c0.2-0.1,0.3-0.4,0.5-0.6h2.4c-0.1,0.5-0.4,1.1-0.9,1.6c-0.8,0.9-1.9,1.3-3.4,1.3c-1.2,0-2.3-0.4-3.2-1.1
	c-0.9-0.7-1.4-1.9-1.4-3.6c0-1.6,0.4-2.8,1.2-3.6c0.8-0.8,1.9-1.2,3.2-1.2C16,2.9,16.7,3.1,17.3,3.4 M13.8,5.4
	c-0.3,0.3-0.5,0.8-0.6,1.4h4.1c0-0.6-0.3-1.1-0.6-1.4c-0.4-0.3-0.8-0.5-1.4-0.5C14.6,4.9,14.2,5,13.8,5.4 M17.8,0.6h-5.2v1.5h5.2
	V0.6z"/>
</svg>
