<?xml version="1.0" encoding="utf-8"?>
<!-- Generator: Adobe Illustrator 18.0.0, SVG Export Plug-In . SVG Version: 6.00 Build 0)  -->
<!DOCTYPE svg PUBLIC "-//W3C//DTD SVG 1.1//EN" "http://www.w3.org/Graphics/SVG/1.1/DTD/svg11.dtd">
<svg version="1.1" id="Layer_1" xmlns="http://www.w3.org/2000/svg" xmlns:xlink="http://www.w3.org/1999/xlink" x="0px" y="0px"
	 viewBox="0 0 20.1 16.4" enable-background="new 0 0 20.1 16.4" xml:space="preserve">
<path fill="#999999" d="M20.1,1.9c-0.7,0.3-1.5,0.6-2.4,0.7c0.9-0.5,1.5-1.3,1.8-2.3c-0.8,0.5-1.7,0.8-2.6,1c-0.8-0.8-1.8-1.3-3-1.3
	c-2.3,0-4.1,1.9-4.1,4.1c0,0.3,0,0.6,0.1,0.9C6.5,4.9,3.4,3.3,1.4,0.8C1,1.4,0.8,2.1,0.8,2.8c0,1.4,0.7,2.7,1.8,3.4
	C2,6.3,1.4,6.1,0.8,5.8c0,0,0,0,0,0.1c0,2,1.4,3.7,3.3,4.1C3.8,10,3.4,10,3,10c-0.3,0-0.5,0-0.8-0.1c0.5,1.6,2.1,2.8,3.9,2.9
	c-1.4,1.1-3.2,1.8-5.1,1.8c-0.3,0-0.7,0-1-0.1c1.8,1.2,4,1.9,6.3,1.9c7.6,0,11.8-6.3,11.8-11.8c0-0.2,0-0.4,0-0.5
	C18.9,3.5,19.6,2.8,20.1,1.9"/>
</svg>
