<?xml version="1.0" encoding="utf-8"?>
<!-- Generator: Adobe Illustrator 18.0.0, SVG Export Plug-In . SVG Version: 6.00 Build 0)  -->
<!DOCTYPE svg PUBLIC "-//W3C//DTD SVG 1.1//EN" "http://www.w3.org/Graphics/SVG/1.1/DTD/svg11.dtd">
<svg version="1.1" id="Layer_1" xmlns="http://www.w3.org/2000/svg" xmlns:xlink="http://www.w3.org/1999/xlink" x="0px" y="0px"
	 viewBox="0 0 17.3 17.3" enable-background="new 0 0 17.3 17.3" xml:space="preserve">
<path fill-rule="evenodd" clip-rule="evenodd" fill="#999999" d="M17.1,6.9c-0.1-0.6-0.3-1.1-0.5-1.6c-0.2-0.5-0.5-1-0.8-1.5
	c-0.3-0.5-0.7-0.9-1.1-1.3c-0.4-0.4-0.8-0.7-1.3-1.1c-0.5-0.3-1-0.6-1.5-0.8c-0.5-0.2-1.1-0.4-1.6-0.5C9.8,0.1,9.2,0,8.6,0
	C8.1,0,7.5,0.1,6.9,0.2C6.3,0.3,5.8,0.5,5.3,0.7c-0.5,0.2-1,0.5-1.5,0.8C3.4,1.8,2.9,2.1,2.5,2.5C2.1,2.9,1.8,3.4,1.5,3.8
	c-0.3,0.5-0.6,1-0.8,1.5C0.5,5.8,0.3,6.3,0.2,6.9C0.1,7.5,0,8.1,0,8.6c0,0.6,0.1,1.2,0.2,1.7c0.1,0.6,0.3,1.1,0.5,1.6
	c0.2,0.5,0.5,1,0.8,1.5c0.3,0.5,0.7,0.9,1.1,1.3c0.4,0.4,0.8,0.7,1.3,1.1c0.5,0.3,1,0.6,1.5,0.8c0.5,0.2,1.1,0.4,1.6,0.5
	c0.6,0.1,1.2,0.2,1.7,0.2c0.6,0,1.2-0.1,1.7-0.2c0.6-0.1,1.1-0.3,1.6-0.5c0.5-0.2,1-0.5,1.5-0.8c0.5-0.3,0.9-0.7,1.3-1.1
	c0.4-0.4,0.7-0.8,1.1-1.3c0.3-0.5,0.6-1,0.8-1.5c0.2-0.5,0.4-1.1,0.5-1.6c0.1-0.6,0.2-1.2,0.2-1.7C17.3,8.1,17.2,7.5,17.1,6.9
	 M16,8.6c-0.1,0-2.6-0.6-5.1-0.2c-0.1-0.1-0.1-0.3-0.2-0.4c-0.2-0.4-0.3-0.7-0.5-1.1C13.1,5.7,14.3,4,14.3,4C15.4,5.2,16,6.8,16,8.6
	 M13.5,3.1c0,0-1.1,1.6-3.9,2.7C8.4,3.5,7,1.6,6.9,1.5C7.5,1.3,8,1.3,8.6,1.3C10.5,1.3,12.2,2,13.5,3.1 M6.9,1.5L6.9,1.5
	C6.9,1.5,6.9,1.5,6.9,1.5C6.9,1.5,6.9,1.5,6.9,1.5 M5.5,2c0.1,0.1,1.5,2,2.7,4.2C4.7,7.2,1.6,7.1,1.4,7.1C1.9,4.8,3.4,2.9,5.5,2
	 M1.3,8.6c0-0.1,0-0.2,0-0.2c0.1,0,3.8,0.1,7.6-1.1c0.2,0.4,0.4,0.8,0.6,1.3c-0.1,0-0.2,0.1-0.3,0.1c-4,1.3-6,4.9-6,4.9s0,0,0,0
	C2,12.3,1.3,10.5,1.3,8.6 M8.6,16c-1.8,0-3.4-0.6-4.7-1.7c0.1,0.1,0.2,0.1,0.2,0.1s1.4-3.1,5.8-4.6c0,0,0,0,0,0c1,2.7,1.5,5,1.6,5.6
	C10.6,15.8,9.7,16,8.6,16 M12.8,14.8c-0.1-0.4-0.5-2.6-1.4-5.3c2.4-0.4,4.4,0.3,4.6,0.3C15.6,11.9,14.4,13.6,12.8,14.8"/>
</svg>
