<?xml version="1.0" encoding="utf-8"?>
<!-- Generator: Adobe Illustrator 18.0.0, SVG Export Plug-In . SVG Version: 6.00 Build 0)  -->
<!DOCTYPE svg PUBLIC "-//W3C//DTD SVG 1.1//EN" "http://www.w3.org/Graphics/SVG/1.1/DTD/svg11.dtd">
<svg version="1.1" id="Layer_1" xmlns="http://www.w3.org/2000/svg" xmlns:xlink="http://www.w3.org/1999/xlink" x="0px" y="0px"
	 viewBox="0 0 17.3 15.9" enable-background="new 0 0 17.3 15.9" xml:space="preserve">
<path fill="#999999" d="M3.8,15.9H0.4V5.1h3.4V15.9z M2,3.7L2,3.7c-1.2,0-2-0.8-2-1.9C0,0.8,0.8,0,2.1,0c1.2,0,2,0.8,2,1.9
	C4.1,2.9,3.3,3.7,2,3.7 M17.3,15.9h-3.8v-5.6c0-1.5-0.6-2.5-1.9-2.5c-1,0-1.6,0.7-1.8,1.3C9.6,9.4,9.6,9.7,9.6,10v5.8H5.9
	c0,0,0-9.9,0-10.8h3.8v1.7C9.9,6,11.1,5,13,5c2.4,0,4.3,1.5,4.3,4.9V15.9z"/>
</svg>
